<svg width="105" height="19" viewBox="0 0 105 19" fill="none" xmlns="http://www.w3.org/2000/svg">
<path d="M7.4817 0L4.67927 13.8389C4.64499 13.9738 4.62786 14.1509 4.62786 14.3702C4.62786 14.6232 4.68785 14.8003 4.80783 14.9015C4.94495 15.0027 5.13349 15.0533 5.37345 15.0533C5.78481 15.0533 6.29902 14.9015 6.91607 14.5979L6.76182 18.4687C5.90481 18.8229 5.03065 19 4.13936 19C2.93955 19 1.94542 18.6542 1.15697 17.9627C0.385662 17.2543 0 16.2676 0 15.0027C0 14.5304 0.0428561 14.0919 0.128557 13.6871L2.93097 0H7.4817Z" fill="#0062FF"/>
<path d="M16.7518 4.93341C18.7057 4.93341 20.2483 5.45627 21.3796 6.50199C22.5108 7.5477 23.0765 8.98135 23.0765 10.8029C23.0765 11.0896 23.0679 11.3089 23.0508 11.4607L13.538 13.6618C13.7436 14.2521 14.0779 14.7159 14.5407 15.0533C15.0034 15.3737 15.5691 15.5339 16.2375 15.5339C16.8374 15.5339 17.4459 15.3906 18.063 15.1039C18.68 14.8171 19.2714 14.4039 19.837 13.8642L22.2023 16.1411C20.4197 17.9964 18.2001 18.9241 15.5434 18.9241C14.155 18.9241 12.938 18.6711 11.8925 18.1651C10.8641 17.6422 10.0671 16.9086 9.50145 15.964C8.95296 15.0195 8.67871 13.9232 8.67871 12.6751C8.67871 11.1571 9.01295 9.81623 9.68142 8.65245C10.367 7.4718 11.3183 6.56102 12.5353 5.92009C13.7694 5.2623 15.1749 4.93341 16.7518 4.93341ZM18.7057 9.91743C18.6029 9.32711 18.3629 8.88015 17.9858 8.57655C17.6259 8.27296 17.1545 8.12116 16.5718 8.12116C15.7148 8.12116 15.0034 8.39102 14.4378 8.93075C13.8722 9.47047 13.5208 10.221 13.3837 11.1824L18.7057 9.91743Z" fill="#0062FF"/>
<path d="M30.6243 18.9241C29.3216 18.9241 28.1818 18.6711 27.2048 18.1651C26.2278 17.6422 25.4736 16.9086 24.9423 15.964C24.4109 15.0195 24.1453 13.9316 24.1453 12.7004C24.1453 11.1824 24.4795 9.84153 25.148 8.67775C25.8336 7.4971 26.7763 6.57788 27.9761 5.92009C29.1759 5.2623 30.5471 4.93341 32.0897 4.93341C33.4781 4.93341 34.6779 5.22014 35.6892 5.7936C36.7176 6.35019 37.4803 7.14291 37.9774 8.17176L34.4808 10.0692C34.2237 9.61384 33.8723 9.26808 33.4267 9.03195C32.9982 8.77895 32.4925 8.65245 31.9098 8.65245C31.0013 8.65245 30.2472 8.99821 29.6473 9.68974C29.0474 10.3813 28.7474 11.2752 28.7474 12.3715C28.7474 13.2485 28.9702 13.9569 29.4159 14.4967C29.8787 15.0195 30.4871 15.2809 31.2413 15.2809C32.5097 15.2809 33.4695 14.7665 34.1209 13.7377L37.2832 15.6604C36.6319 16.7062 35.732 17.5157 34.5836 18.0892C33.4352 18.6458 32.1155 18.9241 30.6243 18.9241Z" fill="#0062FF"/>
<path d="M44.0727 13.6871C44.0213 13.9063 43.9956 14.1087 43.9956 14.2943C43.9956 14.9858 44.3127 15.3315 44.9469 15.3315C45.4611 15.3315 46.0781 15.1798 46.798 14.8762L47.0551 18.0639C46.4895 18.3506 45.8553 18.5783 45.1526 18.747C44.4498 18.8988 43.7642 18.9747 43.0957 18.9747C41.9131 18.9747 40.9789 18.6795 40.2933 18.0892C39.6077 17.482 39.2649 16.6387 39.2649 15.5592C39.2649 15.2388 39.3077 14.8509 39.3934 14.3955L41.913 1.94806H46.4638L45.6925 5.743H49.2919L48.7006 8.72835H45.0754L44.0727 13.6871Z" fill="#0062FF"/>
<path d="M64.007 13.8389C63.9556 14.0413 63.9299 14.2184 63.9299 14.3702C63.9299 14.8256 64.1784 15.0532 64.6755 15.0532C65.0526 15.0532 65.4639 14.9605 65.9096 14.775L65.1383 18.747C64.5041 18.8988 63.947 18.9747 63.4671 18.9747C61.5131 18.9747 60.2962 18.1314 59.8162 16.4447L59.662 15.8375C59.0278 16.8664 58.2736 17.6422 57.3995 18.1651C56.5253 18.688 55.5569 18.9494 54.4942 18.9494C53.0373 18.9494 51.8803 18.5446 51.0233 17.735C50.1663 16.9086 49.7378 15.8291 49.7378 14.4967C49.7378 13.9907 49.7806 13.5521 49.8664 13.1811L51.5118 5.08521H56.0882L54.5713 12.5233C54.5199 12.7426 54.4942 12.9618 54.4942 13.1811C54.4942 13.7883 54.6742 14.269 55.0341 14.6232C55.3941 14.9605 55.8911 15.1291 56.5253 15.1291C57.3138 15.1291 58.0079 14.8424 58.6078 14.269C59.2077 13.6955 59.602 12.9534 59.7905 12.0426L61.2046 5.08521H65.781L64.007 13.8389Z" fill="#0062FF"/>
<path d="M74.1644 7.21036C75.4156 5.67552 77.0182 4.9081 78.9722 4.9081L78.4323 9.03193C78.278 9.01507 78.0552 9.00663 77.7638 9.00663C76.6325 9.00663 75.6384 9.3018 74.7814 9.89212C73.9415 10.4824 73.4016 11.2414 73.1617 12.1691L71.8247 18.7723H67.2483L70.025 5.08519H74.6014L74.1644 7.21036Z" fill="#0062FF"/>
<path d="M84.0771 18.9494C83.0316 18.9494 82.0974 18.6964 81.2747 18.1904C80.452 17.6844 79.8092 16.976 79.3464 16.0652C78.9008 15.1544 78.678 14.1087 78.678 12.9281C78.678 11.4438 78.9951 10.0945 79.6293 8.88015C80.2806 7.66577 81.1633 6.70438 82.2774 5.99599C83.4087 5.2876 84.6513 4.93341 86.0054 4.93341C87.0338 4.93341 87.9165 5.14424 88.6536 5.5659C89.3906 5.97069 89.9476 6.56945 90.3247 7.36217L90.7875 5.08521H95.3639L93.5899 13.7883C93.5385 13.9907 93.5128 14.1678 93.5128 14.3196C93.5128 14.5557 93.5728 14.7328 93.6928 14.8509C93.8128 14.9521 94.0099 15.0027 94.2841 15.0027C94.6612 15.0027 95.0726 14.9099 95.5182 14.7244L94.7212 18.6964C94.0699 18.8651 93.5128 18.9494 93.05 18.9494C91.1989 18.9494 89.9905 18.1061 89.4249 16.4194L89.322 16.0652C88.6193 16.9929 87.8137 17.7097 86.9053 18.2157C86.014 18.7048 85.0713 18.9494 84.0771 18.9494ZM85.8512 15.4833C86.4853 15.4833 87.0767 15.3062 87.6251 14.9521C88.1736 14.5979 88.6021 14.1172 88.9107 13.51C89.2363 12.9028 89.3992 12.2366 89.3992 11.5113C89.3992 10.6511 89.1592 9.96803 88.6793 9.46204C88.2165 8.93918 87.5909 8.67775 86.8024 8.67775C86.1682 8.67775 85.5769 8.86328 85.0284 9.23434C84.4971 9.58854 84.0686 10.0692 83.7429 10.6764C83.4344 11.2836 83.2801 11.9414 83.2801 12.6498C83.2801 13.51 83.5115 14.2015 83.9743 14.7244C84.4542 15.2303 85.0798 15.4833 85.8512 15.4833Z" fill="#0062FF"/>
<path d="M105 -1.52588e-05L102.198 13.8389C102.163 13.9738 102.146 14.1509 102.146 14.3702C102.146 14.6232 102.206 14.8003 102.326 14.9014C102.463 15.0026 102.652 15.0532 102.892 15.0532C103.303 15.0532 103.817 14.9014 104.434 14.5979L104.28 18.4687C103.423 18.8229 102.549 19 101.658 19C100.458 19 99.4637 18.6542 98.6753 17.9627C97.904 17.2543 97.5183 16.2676 97.5183 15.0026C97.5183 14.5304 97.5612 14.0919 97.6469 13.6871L100.449 -1.52588e-05H105Z" fill="#0062FF"/>
</svg>
